<svg width="34" height="35" viewBox="0 0 34 35" fill="none" xmlns="http://www.w3.org/2000/svg">
    <path
        d="M17.6481 10.6641C18.4041 10.1961 18.6921 7.13607 18.0441 6.34407C17.8281 6.05607 17.3601 5.84007 17.0001 5.84007C15.9561 5.84007 15.5241 6.74007 15.6321 8.57607C15.7401 10.5201 16.5681 11.3481 17.6481 10.6641Z"
        fill="white" />
    <g filter="url(#filter0_bii_4208_100)">
        <path fill-rule="evenodd" clip-rule="evenodd"
            d="M12.9682 2.67209C11.8522 4.79609 11.7802 4.86809 11.6722 3.86009C11.4922 2.06009 11.3122 1.73608 10.7002 2.24009C10.3042 2.56409 10.1602 3.42809 10.1602 5.33609C10.1602 7.46009 9.98019 8.36008 9.22419 9.90808L8.51619 11.3513C8.37178 11.6457 8.36622 11.9891 8.50101 12.288L9.94419 15.4881C10.8442 17.5041 11.6002 19.2321 11.6002 19.3041C11.6002 19.3761 11.1322 19.6281 10.5202 19.8441C9.80019 20.0961 9.44019 20.4561 9.44019 20.9601C9.44019 21.6801 9.29619 21.7161 6.12819 21.6081L2.78019 21.5001L2.67219 19.9521C2.56419 18.2961 1.88019 17.6841 0.980186 18.4401C0.548186 18.8001 0.440186 19.9881 0.440186 24.7761C0.440186 30.2121 0.476186 30.6801 1.12419 31.0401C1.66419 31.2921 1.95219 31.2561 2.38419 30.8241C3.24819 29.9961 9.44019 30.4641 9.44019 31.4001C9.44019 31.7241 9.83619 32.3721 10.3402 32.8401C11.1322 33.5961 11.3842 33.6321 11.9602 33.2721C13.0042 32.6241 14.0122 32.7321 14.2282 33.5601C14.4802 34.4961 15.4162 34.4961 15.9922 33.5601C16.5682 32.6241 17.4322 32.6241 18.0082 33.5601C18.5842 34.4961 19.5202 34.4961 19.7722 33.5601C19.9882 32.7321 20.9962 32.6241 22.0402 33.2721C22.6162 33.6321 22.8682 33.5961 23.6602 32.8401C24.1642 32.3721 24.5602 31.7241 24.5602 31.4001C24.5602 30.4641 30.7522 29.9961 31.6162 30.8241C32.0482 31.2561 32.3362 31.2921 32.8762 31.0401C33.5242 30.6801 33.5602 30.2121 33.5602 24.5961C33.5602 19.6641 33.4522 18.4401 33.0202 18.0801C32.0842 17.2881 31.4362 17.9361 31.3282 19.7721L31.2202 21.5001L27.9442 21.6081C24.6682 21.7161 24.6322 21.6801 24.4162 20.7801C24.2722 20.2761 23.9842 19.8801 23.7322 19.8801C22.2922 19.8441 22.3282 19.2681 24.0202 15.4881L25.4972 12.1883C25.6332 11.8846 25.6243 11.5357 25.4732 11.2393L24.7762 9.87209C24.0202 8.36009 23.8402 7.53209 23.8402 5.37209C23.8402 3.57209 23.6962 2.56409 23.3722 2.27608C22.7242 1.77208 22.4002 2.13209 22.4002 3.39209C22.4002 4.79609 21.8602 4.40009 20.7802 2.20409L20.1585 0.985615C19.9877 0.650829 19.6436 0.440086 19.2678 0.440086H17.0002H14.7568C14.3871 0.440086 14.0477 0.643963 13.874 0.970238L12.9682 2.67209ZM18.0442 6.34409C18.6922 7.13609 18.4042 10.1961 17.6482 10.6641C16.5682 11.3481 15.7402 10.5201 15.6322 8.57608C15.5242 6.74008 15.9562 5.84008 17.0002 5.84008C17.3602 5.84008 17.8282 6.05609 18.0442 6.34409ZM18.7642 19.0881C19.5922 20.7441 20.0242 21.2121 20.9962 21.5001L22.2202 21.8601V26.1801V30.5001H17.0002H11.7802V26.1801V21.8601L13.0042 21.5001C13.9762 21.2121 14.4082 20.7441 15.2362 19.0881C15.9922 17.6121 16.4962 17.0001 17.0002 17.0001C17.5042 17.0001 18.0082 17.6121 18.7642 19.0881ZM14.1201 26.0001C14.1201 28.5921 14.1921 28.9161 14.7681 28.8081C15.2721 28.7001 15.3801 28.2681 15.3801 26.0001C15.3801 23.7321 15.2721 23.3001 14.7681 23.1921C14.1921 23.0841 14.1201 23.4081 14.1201 26.0001ZM18.5121 26.3961C18.4401 25.1361 18.4761 23.8761 18.5841 23.6241C18.6921 23.3361 19.0161 23.1201 19.3401 23.1201C19.7721 23.1201 19.8801 23.6601 19.8801 26.0361C19.8801 28.5921 19.8081 28.9161 19.2681 28.8081C18.7281 28.7001 18.5841 28.2321 18.5121 26.3961Z"
            fill="url(#paint0_linear_4208_100)" />
    </g>
    <path
        d="M14.1203 26.0001C14.1203 28.5921 14.1923 28.9161 14.7683 28.8081C15.2723 28.7001 15.3803 28.2681 15.3803 26.0001C15.3803 23.7321 15.2723 23.3001 14.7683 23.1921C14.1923 23.0841 14.1203 23.4081 14.1203 26.0001Z"
        fill="white" />
    <path
        d="M18.5843 23.624C18.4763 23.876 18.4403 25.136 18.5123 26.396C18.5843 28.232 18.7283 28.7 19.2683 28.808C19.8083 28.916 19.8803 28.592 19.8803 26.036C19.8803 23.66 19.7723 23.12 19.3403 23.12C19.0163 23.12 18.6923 23.336 18.5843 23.624Z"
        fill="white" />
    <defs>
        <filter id="filter0_bii_4208_100" x="-39.5598" y="-39.5599" width="113.12" height="113.822"
            filterUnits="userSpaceOnUse" color-interpolation-filters="sRGB">
            <feFlood flood-opacity="0" result="BackgroundImageFix" />
            <feGaussianBlur in="BackgroundImageFix" stdDeviation="20" />
            <feComposite in2="SourceAlpha" operator="in" result="effect1_backgroundBlur_4208_100" />
            <feBlend mode="normal" in="SourceGraphic" in2="effect1_backgroundBlur_4208_100"
                result="shape" />
            <feColorMatrix in="SourceAlpha" type="matrix"
                values="0 0 0 0 0 0 0 0 0 0 0 0 0 0 0 0 0 0 127 0" result="hardAlpha" />
            <feOffset dy="1" />
            <feGaussianBlur stdDeviation="1.5" />
            <feComposite in2="hardAlpha" operator="arithmetic" k2="-1" k3="1" />
            <feColorMatrix type="matrix" values="0 0 0 0 1 0 0 0 0 1 0 0 0 0 1 0 0 0 0.6 0" />
            <feBlend mode="normal" in2="shape" result="effect2_innerShadow_4208_100" />
            <feColorMatrix in="SourceAlpha" type="matrix"
                values="0 0 0 0 0 0 0 0 0 0 0 0 0 0 0 0 0 0 127 0" result="hardAlpha" />
            <feOffset dy="1" />
            <feGaussianBlur stdDeviation="1.5" />
            <feComposite in2="hardAlpha" operator="arithmetic" k2="-1" k3="1" />
            <feColorMatrix type="matrix" values="0 0 0 0 1 0 0 0 0 1 0 0 0 0 1 0 0 0 0.6 0" />
            <feBlend mode="normal" in2="effect2_innerShadow_4208_100"
                result="effect3_innerShadow_4208_100" />
        </filter>
        <linearGradient id="paint0_linear_4208_100" x1="0.440186" y1="17.3511" x2="33.5602"
            y2="17.3511" gradientUnits="userSpaceOnUse">
            <stop stop-color="#3CF8AE" />
            <stop offset="0.548153" stop-color="#000AFF" />
            <stop offset="1" stop-color="#FEAD17" />
        </linearGradient>
    </defs>
</svg>